{
  "accessors": [
    {
      "bufferView": 2,
      "componentType": 5126,
      "count": 65532,
      "max": [
        0.6504499912261963,
        0.6309199929237366,
        0.053300000727176666
      ],
      "min": [
        -0.5501300096511841,
        -0.5643600225448608,
        -0.005249999929219484
      ],
      "type": "VEC3"
    },
    {
      "bufferView": 2,
      "byteOffset": 786384,
      "componentType": 5126,
      "count": 65532,
      "max": [
        0.9999414086341858,
        0.9997584223747253,
        0.9999995231628418
      ],
      "min": [
        -0.9987086057662964,
        -0.9997100234031677,
        -0.9985998868942261
      ],
      "type": "VEC3"
    },
    {
      "bufferView": 1,
      "componentType": 5126,
      "count": 65532,
      "max": [
        0.9974319934844971,
        0.6919659972190857
      ],
      "min": [
        0.002078999998047948,
        0.002452000044286251
      ],
      "type": "VEC2"
    },
    {
      "bufferView": 0,
      "componentType": 5125,
      "count": 361464,
      "type": "SCALAR"
    },
    {
      "bufferView": 2,
      "byteOffset": 1572768,
      "componentType": 5126,
      "count": 62887,
      "max": [
        0.6331800222396851,
        0.6409400105476379,
        0.05259000137448311
      ],
      "min": [
        -0.5281500220298767,
        -0.5643600225448608,
        -0.004139999859035015
      ],
      "type": "VEC3"
    },
    {
      "bufferView": 2,
      "byteOffset": 2327412,
      "componentType": 5126,
      "count": 62887,
      "max": [
        0.955265462398529,
        0.8759534358978271,
        0.9999998807907104
      ],
      "min": [
        -0.9717826247215271,
        -0.978062629699707,
        -0.7961634397506714
      ],
      "type": "VEC3"
    },
    {
      "bufferView": 1,
      "byteOffset": 524256,
      "componentType": 5126,
      "count": 62887,
      "max": [
        0.9960970282554626,
        0.9978799819946289
      ],
      "min": [
        0.0021200000774115324,
        0.2995159924030304
      ],
      "type": "VEC2"
    },
    {
      "bufferView": 0,
      "byteOffset": 1445856,
      "componentType": 5125,
      "count": 359088,
      "type": "SCALAR"
    }
  ],
  "asset": {
    "extras": {
      "author": "frag112 (https://sketchfab.com/frag112)",
      "license": "CC-BY-NC-SA-4.0 (http://creativecommons.org/licenses/by-nc-sa/4.0/)",
      "source": "https://sketchfab.com/3d-models/asphalt-broken-road-debris-cracks-40d1dac8aa61404497a5e48c2fbab010",
      "title": "Asphalt broken road debris cracks"
    },
    "generator": "Sketchfab-15.24.0",
    "version": "2.0"
  },
  "bufferViews": [
    {
      "buffer": 0,
      "byteLength": 2882208,
      "name": "floatBufferViews",
      "target": 34963
    },
    {
      "buffer": 0,
      "byteLength": 1027352,
      "byteOffset": 2882208,
      "byteStride": 8,
      "name": "floatBufferViews",
      "target": 34962
    },
    {
      "buffer": 0,
      "byteLength": 3082056,
      "byteOffset": 3909560,
      "byteStride": 12,
      "name": "floatBufferViews",
      "target": 34962
    }
  ],
  "buffers": [
    {
      "byteLength": 6991616,
      "uri": ".bin"
    }
  ],
  "extensionsUsed": [
    "KHR_materials_unlit"
  ],
  "images": [
    {
      "uri": "textures/main_baseColor.jpeg"
    }
  ],
  "materials": [
    {
      "doubleSided": true,
      "extensions": {
        "KHR_materials_unlit": {}
      },
      "name": "main",
      "pbrMetallicRoughness": {
        "baseColorTexture": {
          "index": 0
        },
        "metallicFactor": 0.0
      }
    }
  ],
  "meshes": [
    {
      "name": "Object_0",
      "primitives": [
        {
          "attributes": {
            "NORMAL": 1,
            "POSITION": 0,
            "TEXCOORD_0": 2
          },
          "indices": 3,
          "material": 0,
          "mode": 4
        }
      ]
    },
    {
      "name": "Object_1",
      "primitives": [
        {
          "attributes": {
            "NORMAL": 5,
            "POSITION": 4,
            "TEXCOORD_0": 6
          },
          "indices": 7,
          "material": 0,
          "mode": 4
        }
      ]
    }
  ],
  "nodes": [
    {
      "children": [
        1
      ],
      "matrix": [
        1.0,
        0.0,
        0.0,
        0.0,
        0.0,
        2.220446049250313e-16,
        -1.0,
        0.0,
        0.0,
        1.0,
        2.220446049250313e-16,
        0.0,
        0.0,
        0.0,
        0.0,
        1.0
      ],
      "name": "Sketchfab_model"
    },
    {
      "children": [
        2,
        3
      ],
      "name": "Scaniverse.obj.cleaner.materialmerger.gles"
    },
    {
      "mesh": 0,
      "name": "Object_2"
    },
    {
      "mesh": 1,
      "name": "Object_3"
    }
  ],
  "samplers": [
    {
      "magFilter": 9729,
      "minFilter": 9987,
      "wrapS": 10497,
      "wrapT": 10497
    }
  ],
  "scene": 0,
  "scenes": [
    {
      "name": "Sketchfab_Scene",
      "nodes": [
        0
      ]
    }
  ],
  "textures": [
    {
      "sampler": 0,
      "source": 0
    }
  ]
}
