{
  "accessors": [
    {
      "bufferView": 2,
      "componentType": 5126,
      "count": 65532,
      "max": [
        14.756507873535156,
        5.573546409606934,
        17.69569969177246
      ],
      "min": [
        -17.939180374145508,
        -6.450654029846191,
        -16.48072052001953
      ],
      "type": "VEC3"
    },
    {
      "bufferView": 2,
      "byteOffset": 786384,
      "componentType": 5126,
      "count": 65532,
      "max": [
        0.9998202323913574,
        0.996954619884491,
        0.9999764561653137
      ],
      "min": [
        -0.9999457001686096,
        -0.9999986290931702,
        -0.9999592900276184
      ],
      "type": "VEC3"
    },
    {
      "bufferView": 1,
      "componentType": 5126,
      "count": 65532,
      "max": [
        0.9880242347717285,
        0.9998779296875
      ],
      "min": [
        0.0002512962091714144,
        0.24611139297485352
      ],
      "type": "VEC2"
    },
    {
      "bufferView": 0,
      "componentType": 5125,
      "count": 314703,
      "type": "SCALAR"
    },
    {
      "bufferView": 2,
      "byteOffset": 1572768,
      "componentType": 5126,
      "count": 65532,
      "max": [
        13.300322532653809,
        5.579830646514893,
        13.272432327270508
      ],
      "min": [
        -14.765732765197754,
        -4.847418785095215,
        -14.533029556274414
      ],
      "type": "VEC3"
    },
    {
      "bufferView": 2,
      "byteOffset": 2359152,
      "componentType": 5126,
      "count": 65532,
      "max": [
        0.999297559261322,
        0.8189796805381775,
        0.9996547102928162
      ],
      "min": [
        -0.9960147142410278,
        -0.9999997615814209,
        -0.9999658465385437
      ],
      "type": "VEC3"
    },
    {
      "bufferView": 1,
      "byteOffset": 524256,
      "componentType": 5126,
      "count": 65532,
      "max": [
        0.9457805156707764,
        0.9995904564857483
      ],
      "min": [
        0.00012207029794808477,
        0.24257409572601318
      ],
      "type": "VEC2"
    },
    {
      "bufferView": 0,
      "byteOffset": 1258812,
      "componentType": 5125,
      "count": 314088,
      "type": "SCALAR"
    },
    {
      "bufferView": 2,
      "byteOffset": 3145536,
      "componentType": 5126,
      "count": 65532,
      "max": [
        14.700942039489746,
        5.579830646514893,
        17.694616317749023
      ],
      "min": [
        -17.939180374145508,
        -6.450654029846191,
        -16.48202133178711
      ],
      "type": "VEC3"
    },
    {
      "bufferView": 2,
      "byteOffset": 3931920,
      "componentType": 5126,
      "count": 65532,
      "max": [
        0.9996145963668823,
        0.7830176949501038,
        0.9999764561653137
      ],
      "min": [
        -0.9998680353164673,
        -0.9999998807907104,
        -0.999983549118042
      ],
      "type": "VEC3"
    },
    {
      "bufferView": 1,
      "byteOffset": 1048512,
      "componentType": 5126,
      "count": 65532,
      "max": [
        0.9816584587097168,
        0.9990307092666626
      ],
      "min": [
        0.00024104439944494516,
        0.24390149116516113
      ],
      "type": "VEC2"
    },
    {
      "bufferView": 0,
      "byteOffset": 2515164,
      "componentType": 5125,
      "count": 300102,
      "type": "SCALAR"
    },
    {
      "bufferView": 2,
      "byteOffset": 4718304,
      "componentType": 5126,
      "count": 59156,
      "max": [
        14.695599555969238,
        5.576997756958008,
        17.527786254882813
      ],
      "min": [
        -17.938434600830078,
        -6.024148464202881,
        -16.316083908081055
      ],
      "type": "VEC3"
    },
    {
      "bufferView": 2,
      "byteOffset": 5428176,
      "componentType": 5126,
      "count": 59156,
      "max": [
        0.9999029040336609,
        0.7078106999397278,
        0.9997156858444214
      ],
      "min": [
        -0.9989620447158813,
        -0.9999995827674866,
        -0.9999658465385437
      ],
      "type": "VEC3"
    },
    {
      "bufferView": 1,
      "byteOffset": 1572768,
      "componentType": 5126,
      "count": 59156,
      "max": [
        0.9856141805648804,
        0.9997380375862122
      ],
      "min": [
        0.00012207029794808477,
        0.24233198165893555
      ],
      "type": "VEC2"
    },
    {
      "bufferView": 0,
      "byteOffset": 3715572,
      "componentType": 5125,
      "count": 186861,
      "type": "SCALAR"
    },
    {
      "bufferView": 2,
      "byteOffset": 6138048,
      "componentType": 5126,
      "count": 170,
      "max": [
        7.324484825134277,
        -2.9845046997070313,
        17.69569969177246
      ],
      "min": [
        -17.934795379638672,
        -5.823476791381836,
        2.6822292804718018
      ],
      "type": "VEC3"
    },
    {
      "bufferView": 2,
      "byteOffset": 6140088,
      "componentType": 5126,
      "count": 170,
      "max": [
        0.7116235494613647,
        0.998287558555603,
        0.9812241792678833
      ],
      "min": [
        -0.7180766463279724,
        -0.9507171511650085,
        -0.9999691247940063
      ],
      "type": "VEC3"
    },
    {
      "bufferView": 0,
      "byteOffset": 4463016,
      "componentType": 5125,
      "count": 630,
      "type": "SCALAR"
    }
  ],
  "asset": {
    "extras": {
      "author": "jarplaw (https://sketchfab.com/jarplaw)",
      "license": "CC-BY-4.0 (http://creativecommons.org/licenses/by/4.0/)",
      "source": "https://sketchfab.com/3d-models/postholes-test-3fdd6292550548068b1e51f8e6287a81",
      "title": "Postholes Test"
    },
    "generator": "Sketchfab-12.68.0",
    "version": "2.0"
  },
  "bufferViews": [
    {
      "buffer": 0,
      "byteLength": 4465536,
      "name": "floatBufferViews",
      "target": 34963
    },
    {
      "buffer": 0,
      "byteLength": 2046016,
      "byteOffset": 4465536,
      "byteStride": 8,
      "name": "floatBufferViews",
      "target": 34962
    },
    {
      "buffer": 0,
      "byteLength": 6142128,
      "byteOffset": 6511552,
      "byteStride": 12,
      "name": "floatBufferViews",
      "target": 34962
    }
  ],
  "buffers": [
    {
      "byteLength": 12653680,
      "uri": "scene.bin"
    }
  ],
  "images": [
    {
      "uri": "textures/Texture_0_baseColor.jpeg"
    }
  ],
  "materials": [
    {
      "doubleSided": true,
      "name": "Texture_0",
      "pbrMetallicRoughness": {
        "baseColorTexture": {
          "index": 0
        },
        "metallicFactor": 0.0,
        "roughnessFactor": 0.6
      }
    },
    {
      "doubleSided": true,
      "name": "Untextured",
      "pbrMetallicRoughness": {
        "baseColorFactor": [
          0.501961,
          0.501961,
          0.501961,
          1.0
        ],
        "metallicFactor": 0.0,
        "roughnessFactor": 0.6
      }
    }
  ],
  "meshes": [
    {
      "name": "Object_0",
      "primitives": [
        {
          "attributes": {
            "NORMAL": 1,
            "POSITION": 0,
            "TEXCOORD_0": 2
          },
          "indices": 3,
          "material": 0,
          "mode": 4
        }
      ]
    },
    {
      "name": "Object_1",
      "primitives": [
        {
          "attributes": {
            "NORMAL": 5,
            "POSITION": 4,
            "TEXCOORD_0": 6
          },
          "indices": 7,
          "material": 0,
          "mode": 4
        }
      ]
    },
    {
      "name": "Object_2",
      "primitives": [
        {
          "attributes": {
            "NORMAL": 9,
            "POSITION": 8,
            "TEXCOORD_0": 10
          },
          "indices": 11,
          "material": 0,
          "mode": 4
        }
      ]
    },
    {
      "name": "Object_3",
      "primitives": [
        {
          "attributes": {
            "NORMAL": 13,
            "POSITION": 12,
            "TEXCOORD_0": 14
          },
          "indices": 15,
          "material": 0,
          "mode": 4
        }
      ]
    },
    {
      "name": "Object_4",
      "primitives": [
        {
          "attributes": {
            "NORMAL": 17,
            "POSITION": 16
          },
          "indices": 18,
          "material": 1,
          "mode": 4
        }
      ]
    }
  ],
  "nodes": [
    {
      "children": [
        1
      ],
      "matrix": [
        1.0,
        0.0,
        0.0,
        0.0,
        0.0,
        -1.0,
        -2.220446049250313e-16,
        0.0,
        0.0,
        2.220446049250313e-16,
        -1.0,
        0.0,
        0.0,
        0.36263775825500466,
        1.0207165479660034,
        1.0
      ],
      "name": "Sketchfab_model"
    },
    {
      "children": [
        2,
        3,
        4,
        5,
        6
      ],
      "name": "mesh.obj.cleaner"
    },
    {
      "mesh": 0,
      "name": "Object_2"
    },
    {
      "mesh": 1,
      "name": "Object_3"
    },
    {
      "mesh": 2,
      "name": "Object_4"
    },
    {
      "mesh": 3,
      "name": "Object_5"
    },
    {
      "mesh": 4,
      "name": "Object_6"
    }
  ],
  "samplers": [
    {
      "magFilter": 9729,
      "minFilter": 9987,
      "wrapS": 10497,
      "wrapT": 10497
    }
  ],
  "scene": 0,
  "scenes": [
    {
      "name": "Sketchfab_Scene",
      "nodes": [
        0
      ]
    }
  ],
  "textures": [
    {
      "sampler": 0,
      "source": 0
    }
  ]
}
