{
  "accessors": [
    {
      "bufferView": 2,
      "componentType": 5126,
      "count": 65532,
      "max": [
        1.0004290342330933,
        0.7800760269165039,
        0.00903400033712387
      ],
      "min": [
        -1.0018049478530884,
        -0.7771430015563965,
        -0.016969000920653343
      ],
      "type": "VEC3"
    },
    {
      "bufferView": 2,
      "byteOffset": 786384,
      "componentType": 5126,
      "count": 65532,
      "max": [
        0.8741101622581482,
        0.679404079914093,
        1.0
      ],
      "min": [
        -0.7881109714508057,
        -0.7839677333831787,
        0.43360501527786255
      ],
      "type": "VEC3"
    },
    {
      "bufferView": 1,
      "componentType": 5126,
      "count": 65532,
      "max": [
        0.786126971244812,
        1.0
      ],
      "min": [
        0.0,
        -0.0
      ],
      "type": "VEC2"
    },
    {
      "bufferView": 0,
      "componentType": 5125,
      "count": 329958,
      "type": "SCALAR"
    },
    {
      "bufferView": 2,
      "byteOffset": 1572768,
      "componentType": 5126,
      "count": 65532,
      "max": [
        0.9996529817581177,
        0.7778210043907166,
        0.00961500033736229
      ],
      "min": [
        -0.9917740225791931,
        -0.7770460247993469,
        -0.05356999859213829
      ],
      "type": "VEC3"
    },
    {
      "bufferView": 2,
      "byteOffset": 2359152,
      "componentType": 5126,
      "count": 65532,
      "max": [
        0.9662896394729614,
        0.9990630149841309,
        1.0
      ],
      "min": [
        -0.9690646529197693,
        -0.9924355745315552,
        -0.4214140772819519
      ],
      "type": "VEC3"
    },
    {
      "bufferView": 1,
      "byteOffset": 524256,
      "componentType": 5126,
      "count": 65532,
      "max": [
        0.9835910201072693,
        0.9997529983520508
      ],
      "min": [
        0.005084000062197447,
        0.0019749999046325684
      ],
      "type": "VEC2"
    },
    {
      "bufferView": 0,
      "byteOffset": 1319832,
      "componentType": 5125,
      "count": 340863,
      "type": "SCALAR"
    },
    {
      "bufferView": 2,
      "byteOffset": 3145536,
      "componentType": 5126,
      "count": 39946,
      "max": [
        0.9998829960823059,
        0.7797139883041382,
        0.009159999899566174
      ],
      "min": [
        -1.0011160373687744,
        -0.7763329744338989,
        -0.052209001034498215
      ],
      "type": "VEC3"
    },
    {
      "bufferView": 2,
      "byteOffset": 3624888,
      "componentType": 5126,
      "count": 39946,
      "max": [
        0.8221973776817322,
        0.5555789470672607,
        1.0
      ],
      "min": [
        -0.819678008556366,
        -0.97495037317276,
        0.16609549522399902
      ],
      "type": "VEC3"
    },
    {
      "bufferView": 1,
      "byteOffset": 1048512,
      "componentType": 5126,
      "count": 39946,
      "max": [
        0.9551990032196045,
        0.9998660087585449
      ],
      "min": [
        0.0015719999792054296,
        -0.0
      ],
      "type": "VEC2"
    },
    {
      "bufferView": 0,
      "byteOffset": 2683284,
      "componentType": 5125,
      "count": 175074,
      "type": "SCALAR"
    }
  ],
  "asset": {
    "extras": {
      "author": "Kidney_02 (https://sketchfab.com/Kidney02)",
      "license": "CC-BY-4.0 (http://creativecommons.org/licenses/by/4.0/)",
      "source": "https://sketchfab.com/3d-models/photoscan-pothole-1-433a22edfcb749e8b358d778fcb2ecfc",
      "title": "Photoscan - Pothole 1"
    },
    "generator": "Sketchfab-15.47.0",
    "version": "2.0"
  },
  "bufferViews": [
    {
      "buffer": 0,
      "byteLength": 3383580,
      "name": "floatBufferViews",
      "target": 34963
    },
    {
      "buffer": 0,
      "byteLength": 1368080,
      "byteOffset": 3383580,
      "byteStride": 8,
      "name": "floatBufferViews",
      "target": 34962
    },
    {
      "buffer": 0,
      "byteLength": 4104240,
      "byteOffset": 4751660,
      "byteStride": 12,
      "name": "floatBufferViews",
      "target": 34962
    }
  ],
  "buffers": [
    {
      "byteLength": 8855900,
      "uri": "scene.bin"
    }
  ],
  "images": [
    {
      "uri": "textures/1001.004_baseColor.png"
    }
  ],
  "materials": [
    {
      "doubleSided": true,
      "name": "1001.004",
      "pbrMetallicRoughness": {
        "baseColorTexture": {
          "index": 0
        },
        "metallicFactor": 0.0,
        "roughnessFactor": 0.6
      }
    }
  ],
  "meshes": [
    {
      "name": "Object_0",
      "primitives": [
        {
          "attributes": {
            "NORMAL": 1,
            "POSITION": 0,
            "TEXCOORD_0": 2
          },
          "indices": 3,
          "material": 0,
          "mode": 4
        }
      ]
    },
    {
      "name": "Object_1",
      "primitives": [
        {
          "attributes": {
            "NORMAL": 5,
            "POSITION": 4,
            "TEXCOORD_0": 6
          },
          "indices": 7,
          "material": 0,
          "mode": 4
        }
      ]
    },
    {
      "name": "Object_2",
      "primitives": [
        {
          "attributes": {
            "NORMAL": 9,
            "POSITION": 8,
            "TEXCOORD_0": 10
          },
          "indices": 11,
          "material": 0,
          "mode": 4
        }
      ]
    }
  ],
  "nodes": [
    {
      "children": [
        1
      ],
      "matrix": [
        1.0,
        0.0,
        0.0,
        0.0,
        0.0,
        2.220446049250313e-16,
        -1.0,
        0.0,
        0.0,
        1.0,
        2.220446049250313e-16,
        0.0,
        0.0,
        0.0,
        0.0,
        1.0
      ],
      "name": "Sketchfab_model"
    },
    {
      "children": [
        2,
        3,
        4
      ],
      "name": "mesh.obj.cleaner.materialmerger.gles"
    },
    {
      "mesh": 0,
      "name": "Object_2"
    },
    {
      "mesh": 1,
      "name": "Object_3"
    },
    {
      "mesh": 2,
      "name": "Object_4"
    }
  ],
  "samplers": [
    {
      "magFilter": 9729,
      "minFilter": 9987,
      "wrapS": 10497,
      "wrapT": 10497
    }
  ],
  "scene": 0,
  "scenes": [
    {
      "name": "Sketchfab_Scene",
      "nodes": [
        0
      ]
    }
  ],
  "textures": [
    {
      "sampler": 0,
      "source": 0
    }
  ]
}
