{
  "accessors": [
    {
      "bufferView": 2,
      "componentType": 5126,
      "count": 31576,
      "max": [
        0.798337996006012,
        0.7470840215682983,
        -0.323417991399765
      ],
      "min": [
        -1.0384550094604492,
        -1.1461440324783325,
        -0.7465879917144775
      ],
      "type": "VEC3"
    },
    {
      "bufferView": 2,
      "byteOffset": 378912,
      "componentType": 5126,
      "count": 31576,
      "max": [
        0.9997565746307373,
        0.9988930225372314,
        0.9999998807907104
      ],
      "min": [
        -0.9999935030937195,
        -0.9955213069915771,
        -0.990866482257843
      ],
      "type": "VEC3"
    },
    {
      "bufferView": 1,
      "componentType": 5126,
      "count": 31576,
      "max": [
        1.0,
        1.0
      ],
      "min": [
        0.0,
        0.0
      ],
      "type": "VEC2"
    },
    {
      "bufferView": 0,
      "componentType": 5125,
      "count": 172743,
      "type": "SCALAR"
    },
    {
      "bufferView": 2,
      "byteOffset": 757824,
      "componentType": 5126,
      "count": 1393,
      "max": [
        0.8028650283813477,
        -0.31647399067878723,
        -0.375
      ],
      "min": [
        0.6343169808387756,
        -0.7571219801902771,
        -0.591841995716095
      ],
      "type": "VEC3"
    },
    {
      "bufferView": 2,
      "byteOffset": 774540,
      "componentType": 5126,
      "count": 1393,
      "max": [
        0.40529486536979675,
        0.8151907920837402,
        0.9993844628334045
      ],
      "min": [
        -0.999214231967926,
        -0.983691394329071,
        -0.6876479983329773
      ],
      "type": "VEC3"
    },
    {
      "bufferView": 1,
      "byteOffset": 252608,
      "componentType": 5126,
      "count": 1393,
      "max": [
        1.0,
        1.0
      ],
      "min": [
        0.0,
        0.0
      ],
      "type": "VEC2"
    },
    {
      "bufferView": 0,
      "byteOffset": 690972,
      "componentType": 5125,
      "count": 7617,
      "type": "SCALAR"
    }
  ],
  "asset": {
    "extras": {
      "author": "mobydog (https://sketchfab.com/mobydog)",
      "license": "CC-BY-SA-4.0 (http://creativecommons.org/licenses/by-sa/4.0/)",
      "source": "https://sketchfab.com/3d-models/posthole-8c75e761d6244e2f9482b0a5009061bd",
      "title": "Posthole"
    },
    "generator": "Sketchfab-14.20.0",
    "version": "2.0"
  },
  "bufferViews": [
    {
      "buffer": 0,
      "byteLength": 721440,
      "name": "floatBufferViews",
      "target": 34963
    },
    {
      "buffer": 0,
      "byteLength": 263752,
      "byteOffset": 721440,
      "byteStride": 8,
      "name": "floatBufferViews",
      "target": 34962
    },
    {
      "buffer": 0,
      "byteLength": 791256,
      "byteOffset": 985192,
      "byteStride": 12,
      "name": "floatBufferViews",
      "target": 34962
    }
  ],
  "buffers": [
    {
      "byteLength": 1776448,
      "uri": "scene.bin"
    }
  ],
  "extensionsUsed": [
    "KHR_materials_unlit"
  ],
  "images": [
    {
      "uri": "textures/1665661198867_0_baseColor.png"
    },
    {
      "uri": "textures/1665661198867_1_baseColor.png"
    }
  ],
  "materials": [
    {
      "doubleSided": true,
      "emissiveTexture": {
        "index": 0
      },
      "extensions": {
        "KHR_materials_unlit": {}
      },
      "name": "1665661198867_0",
      "pbrMetallicRoughness": {
        "baseColorTexture": {
          "index": 0
        },
        "metallicFactor": 0.0
      }
    },
    {
      "doubleSided": true,
      "emissiveTexture": {
        "index": 1
      },
      "extensions": {
        "KHR_materials_unlit": {}
      },
      "name": "1665661198867_1",
      "pbrMetallicRoughness": {
        "baseColorTexture": {
          "index": 1
        },
        "metallicFactor": 0.0
      }
    }
  ],
  "meshes": [
    {
      "name": "Object_0",
      "primitives": [
        {
          "attributes": {
            "NORMAL": 1,
            "POSITION": 0,
            "TEXCOORD_0": 2
          },
          "indices": 3,
          "material": 0,
          "mode": 4
        }
      ]
    },
    {
      "name": "Object_1",
      "primitives": [
        {
          "attributes": {
            "NORMAL": 5,
            "POSITION": 4,
            "TEXCOORD_0": 6
          },
          "indices": 7,
          "material": 1,
          "mode": 4
        }
      ]
    }
  ],
  "nodes": [
    {
      "children": [
        1
      ],
      "matrix": [
        1.0,
        0.0,
        0.0,
        0.0,
        0.0,
        2.220446049250313e-16,
        -1.0,
        0.0,
        0.0,
        1.0,
        2.220446049250313e-16,
        0.0,
        0.0,
        0.0,
        0.0,
        1.0
      ],
      "name": "Sketchfab_model"
    },
    {
      "children": [
        2,
        3
      ],
      "name": "20221013_124006.obj.cleaner.materialmerger.gles"
    },
    {
      "mesh": 0,
      "name": "Object_2"
    },
    {
      "mesh": 1,
      "name": "Object_3"
    }
  ],
  "samplers": [
    {
      "magFilter": 9729,
      "minFilter": 9987,
      "wrapS": 10497,
      "wrapT": 10497
    }
  ],
  "scene": 0,
  "scenes": [
    {
      "name": "Sketchfab_Scene",
      "nodes": [
        0
      ]
    }
  ],
  "textures": [
    {
      "sampler": 0,
      "source": 0
    },
    {
      "sampler": 0,
      "source": 1
    }
  ]
}
